<mxfile host="app.diagrams.net" modified="2024-01-17T13:48:37.933Z" agent="Mozilla/5.0 (Windows NT 10.0; Win64; x64) AppleWebKit/537.36 (KHTML, like Gecko) Chrome/120.0.0.0 Safari/537.36 Edg/120.0.0.0" etag="_g20yVRWrCdBaqdHJKF4" version="22.1.17" type="github">
  <diagram name="第 1 页" id="p_jz9k-vHqcKYP5KgqfW">
    <mxGraphModel dx="946" dy="631" grid="1" gridSize="10" guides="1" tooltips="1" connect="1" arrows="1" fold="1" page="1" pageScale="1" pageWidth="827" pageHeight="1169" math="0" shadow="0">
      <root>
        <mxCell id="0" />
        <mxCell id="1" parent="0" />
        <mxCell id="6XkXpEdO4iQCdSESwi_j-48" value="" style="endArrow=none;dashed=1;html=1;rounded=0;" edge="1" parent="1">
          <mxGeometry width="50" height="50" relative="1" as="geometry">
            <mxPoint x="460" y="510" as="sourcePoint" />
            <mxPoint x="460" y="200" as="targetPoint" />
          </mxGeometry>
        </mxCell>
        <mxCell id="6XkXpEdO4iQCdSESwi_j-47" value="" style="endArrow=none;dashed=1;html=1;rounded=0;" edge="1" parent="1">
          <mxGeometry width="50" height="50" relative="1" as="geometry">
            <mxPoint x="298.5" y="510" as="sourcePoint" />
            <mxPoint x="298.5" y="200" as="targetPoint" />
          </mxGeometry>
        </mxCell>
        <mxCell id="6XkXpEdO4iQCdSESwi_j-46" value="" style="endArrow=none;dashed=1;html=1;rounded=0;" edge="1" parent="1">
          <mxGeometry width="50" height="50" relative="1" as="geometry">
            <mxPoint x="120" y="510" as="sourcePoint" />
            <mxPoint x="120" y="200" as="targetPoint" />
          </mxGeometry>
        </mxCell>
        <mxCell id="6XkXpEdO4iQCdSESwi_j-1" value="&lt;font style=&quot;font-size: 14px;&quot;&gt;&lt;b&gt;语音API&lt;/b&gt;&lt;/font&gt;" style="rounded=1;whiteSpace=wrap;html=1;" vertex="1" parent="1">
          <mxGeometry x="400" y="164" width="120" height="26" as="geometry" />
        </mxCell>
        <mxCell id="6XkXpEdO4iQCdSESwi_j-12" value="&lt;b&gt;&lt;font color=&quot;#f50018&quot;&gt;用户&lt;/font&gt;&lt;/b&gt;" style="shape=umlActor;verticalLabelPosition=bottom;verticalAlign=top;html=1;outlineConnect=0;" vertex="1" parent="1">
          <mxGeometry x="105" y="110" width="30" height="60" as="geometry" />
        </mxCell>
        <mxCell id="6XkXpEdO4iQCdSESwi_j-22" value="&lt;font color=&quot;#ed0202&quot;&gt;&lt;b&gt;产品经理/商务&lt;/b&gt;&lt;/font&gt;" style="shape=umlActor;verticalLabelPosition=bottom;verticalAlign=top;html=1;outlineConnect=0;" vertex="1" parent="1">
          <mxGeometry x="280" y="110" width="30" height="60" as="geometry" />
        </mxCell>
        <mxCell id="6XkXpEdO4iQCdSESwi_j-25" value="&lt;font color=&quot;#fc0303&quot;&gt;&lt;b&gt;原子能力平台&lt;/b&gt;&lt;/font&gt;" style="shape=process;whiteSpace=wrap;html=1;backgroundOutline=1;" vertex="1" parent="1">
          <mxGeometry x="400" y="120" width="120" height="40" as="geometry" />
        </mxCell>
        <mxCell id="6XkXpEdO4iQCdSESwi_j-26" value="" style="rounded=0;whiteSpace=wrap;html=1;fillColor=#dae8fc;strokeColor=#6c8ebf;" vertex="1" parent="1">
          <mxGeometry x="110" y="230" width="20" height="90" as="geometry" />
        </mxCell>
        <mxCell id="6XkXpEdO4iQCdSESwi_j-29" value="" style="endArrow=classic;html=1;rounded=0;exitX=1;exitY=0.25;exitDx=0;exitDy=0;entryX=-0.017;entryY=0.092;entryDx=0;entryDy=0;entryPerimeter=0;fontStyle=1" edge="1" parent="1" source="6XkXpEdO4iQCdSESwi_j-26" target="6XkXpEdO4iQCdSESwi_j-33">
          <mxGeometry relative="1" as="geometry">
            <mxPoint x="150" y="254.5" as="sourcePoint" />
            <mxPoint x="287" y="253" as="targetPoint" />
          </mxGeometry>
        </mxCell>
        <mxCell id="6XkXpEdO4iQCdSESwi_j-30" value="&lt;font style=&quot;font-size: 12px;&quot;&gt;提出需求，明确商务&lt;/font&gt;" style="edgeLabel;resizable=0;html=1;align=center;verticalAlign=middle;" connectable="0" vertex="1" parent="6XkXpEdO4iQCdSESwi_j-29">
          <mxGeometry relative="1" as="geometry" />
        </mxCell>
        <mxCell id="6XkXpEdO4iQCdSESwi_j-31" value="" style="endArrow=classic;html=1;rounded=0;exitX=0.05;exitY=0.289;exitDx=0;exitDy=0;exitPerimeter=0;" edge="1" parent="1" source="6XkXpEdO4iQCdSESwi_j-33">
          <mxGeometry relative="1" as="geometry">
            <mxPoint x="280" y="298" as="sourcePoint" />
            <mxPoint x="130" y="299" as="targetPoint" />
          </mxGeometry>
        </mxCell>
        <mxCell id="6XkXpEdO4iQCdSESwi_j-32" value="&lt;font style=&quot;font-size: 12px;&quot;&gt;签订合同&lt;/font&gt;" style="edgeLabel;resizable=0;html=1;align=center;verticalAlign=middle;" connectable="0" vertex="1" parent="6XkXpEdO4iQCdSESwi_j-31">
          <mxGeometry relative="1" as="geometry" />
        </mxCell>
        <mxCell id="6XkXpEdO4iQCdSESwi_j-33" value="" style="rounded=0;whiteSpace=wrap;html=1;fillColor=#dae8fc;strokeColor=#6c8ebf;" vertex="1" parent="1">
          <mxGeometry x="289" y="230" width="20" height="240" as="geometry" />
        </mxCell>
        <mxCell id="6XkXpEdO4iQCdSESwi_j-34" value="" style="endArrow=classic;html=1;rounded=0;" edge="1" parent="1">
          <mxGeometry relative="1" as="geometry">
            <mxPoint x="310" y="324" as="sourcePoint" />
            <mxPoint x="450" y="324" as="targetPoint" />
          </mxGeometry>
        </mxCell>
        <mxCell id="6XkXpEdO4iQCdSESwi_j-35" value="&lt;span style=&quot;font-size: 12px;&quot;&gt;免费调用&lt;/span&gt;" style="edgeLabel;resizable=0;html=1;align=center;verticalAlign=middle;" connectable="0" vertex="1" parent="6XkXpEdO4iQCdSESwi_j-34">
          <mxGeometry relative="1" as="geometry" />
        </mxCell>
        <mxCell id="6XkXpEdO4iQCdSESwi_j-37" value="" style="rounded=0;whiteSpace=wrap;html=1;fillColor=#dae8fc;strokeColor=#6c8ebf;" vertex="1" parent="1">
          <mxGeometry x="450" y="296" width="20" height="90" as="geometry" />
        </mxCell>
        <mxCell id="6XkXpEdO4iQCdSESwi_j-38" value="" style="endArrow=classic;html=1;rounded=0;" edge="1" parent="1">
          <mxGeometry relative="1" as="geometry">
            <mxPoint x="450" y="360" as="sourcePoint" />
            <mxPoint x="310" y="360" as="targetPoint" />
          </mxGeometry>
        </mxCell>
        <mxCell id="6XkXpEdO4iQCdSESwi_j-39" value="&lt;font style=&quot;font-size: 12px;&quot;&gt;调用成功&lt;/font&gt;" style="edgeLabel;resizable=0;html=1;align=center;verticalAlign=middle;" connectable="0" vertex="1" parent="6XkXpEdO4iQCdSESwi_j-38">
          <mxGeometry relative="1" as="geometry" />
        </mxCell>
        <mxCell id="6XkXpEdO4iQCdSESwi_j-40" value="" style="endArrow=classic;html=1;rounded=0;" edge="1" parent="1">
          <mxGeometry relative="1" as="geometry">
            <mxPoint x="290" y="420" as="sourcePoint" />
            <mxPoint x="130" y="420" as="targetPoint" />
          </mxGeometry>
        </mxCell>
        <mxCell id="6XkXpEdO4iQCdSESwi_j-41" value="&lt;span style=&quot;font-size: 12px;&quot;&gt;&lt;font color=&quot;#ff3333&quot;&gt;人工催帐&lt;/font&gt;&lt;/span&gt;" style="edgeLabel;resizable=0;html=1;align=center;verticalAlign=middle;" connectable="0" vertex="1" parent="6XkXpEdO4iQCdSESwi_j-40">
          <mxGeometry relative="1" as="geometry" />
        </mxCell>
        <mxCell id="6XkXpEdO4iQCdSESwi_j-42" value="" style="rounded=0;whiteSpace=wrap;html=1;fillColor=#dae8fc;strokeColor=#6c8ebf;" vertex="1" parent="1">
          <mxGeometry x="110" y="390" width="20" height="90" as="geometry" />
        </mxCell>
        <mxCell id="6XkXpEdO4iQCdSESwi_j-43" value="" style="endArrow=classic;html=1;rounded=0;exitX=1;exitY=0.25;exitDx=0;exitDy=0;entryX=-0.05;entryY=0.922;entryDx=0;entryDy=0;entryPerimeter=0;" edge="1" parent="1" target="6XkXpEdO4iQCdSESwi_j-33">
          <mxGeometry relative="1" as="geometry">
            <mxPoint x="130" y="451" as="sourcePoint" />
            <mxPoint x="290" y="450" as="targetPoint" />
          </mxGeometry>
        </mxCell>
        <mxCell id="6XkXpEdO4iQCdSESwi_j-44" value="&lt;span style=&quot;font-size: 12px;&quot;&gt;付款&lt;/span&gt;" style="edgeLabel;resizable=0;html=1;align=center;verticalAlign=middle;" connectable="0" vertex="1" parent="6XkXpEdO4iQCdSESwi_j-43">
          <mxGeometry relative="1" as="geometry" />
        </mxCell>
      </root>
    </mxGraphModel>
  </diagram>
</mxfile>
